G04 EAGLE Gerber RS-274X export*
G75*
%MOMM*%
%FSLAX34Y34*%
%LPD*%
%INTop Copper*%
%IPPOS*%
%AMOC8*
5,1,8,0,0,1.08239X$1,22.5*%
G01*
G04 Define Apertures*
%ADD10C,1.208000*%
%ADD11C,1.524000*%
%ADD12C,0.508000*%
%ADD13C,0.152400*%
D10*
X207800Y73660D03*
X187800Y73660D03*
X167800Y73660D03*
X147800Y73660D03*
X56840Y76200D03*
X76840Y76200D03*
X76040Y106680D03*
X56040Y106680D03*
D11*
X177800Y114300D02*
X177800Y99060D01*
X152400Y99060D02*
X152400Y114300D01*
X25851Y197077D02*
X10611Y197077D01*
X10611Y222477D02*
X25851Y222477D01*
X25851Y247877D02*
X10611Y247877D01*
X10611Y273277D02*
X25851Y273277D01*
X25851Y298677D02*
X10611Y298677D01*
X10611Y324077D02*
X25851Y324077D01*
X25851Y349477D02*
X10611Y349477D01*
X10611Y374877D02*
X25851Y374877D01*
X239211Y197077D02*
X254451Y197077D01*
X254451Y222477D02*
X239211Y222477D01*
X239211Y247877D02*
X254451Y247877D01*
X254451Y273277D02*
X239211Y273277D01*
X239211Y298677D02*
X254451Y298677D01*
X254451Y324077D02*
X239211Y324077D01*
X239211Y349477D02*
X254451Y349477D01*
X254451Y374877D02*
X239211Y374877D01*
D12*
X167800Y73660D02*
X167800Y61120D01*
X154940Y48260D01*
X43180Y48260D01*
X30480Y60960D01*
X30480Y172720D01*
X58420Y200660D01*
X58420Y368300D01*
X51844Y374877D01*
X18231Y374877D01*
D13*
X69540Y88900D02*
X56840Y76200D01*
X69540Y88900D02*
X104140Y88900D01*
X114300Y99060D01*
X114300Y256540D01*
X181837Y324077D01*
X246831Y324077D01*
X104140Y76200D02*
X76840Y76200D01*
X104140Y76200D02*
X119380Y91440D01*
X119380Y238760D01*
X179297Y298677D01*
X246831Y298677D01*
X198120Y83980D02*
X187800Y73660D01*
X198120Y83980D02*
X198120Y251460D01*
X219937Y273277D01*
X246831Y273277D01*
X207800Y230660D02*
X207800Y73660D01*
X207800Y230660D02*
X225017Y247877D01*
X246831Y247877D01*
M02*
