G04 EAGLE Gerber RS-274X export*
G75*
%MOMM*%
%FSLAX34Y34*%
%LPD*%
%IN*%
%IPPOS*%
%AMOC8*
5,1,8,0,0,1.08239X$1,22.5*%
G01*
G04 Define Apertures*
%ADD10C,0.254000*%
D10*
X0Y12700D02*
X48Y11593D01*
X193Y10495D01*
X433Y9413D01*
X766Y8356D01*
X1190Y7333D01*
X1701Y6350D01*
X2297Y5416D01*
X2971Y4537D01*
X3720Y3720D01*
X4537Y2971D01*
X5416Y2297D01*
X6350Y1701D01*
X7333Y1190D01*
X8356Y766D01*
X9413Y433D01*
X10495Y193D01*
X11593Y48D01*
X12700Y0D01*
X253800Y0D01*
X254907Y48D01*
X256005Y193D01*
X257087Y433D01*
X258144Y766D01*
X259167Y1190D01*
X260150Y1701D01*
X261085Y2297D01*
X261964Y2971D01*
X262780Y3720D01*
X263529Y4537D01*
X264203Y5416D01*
X264799Y6350D01*
X265310Y7333D01*
X265734Y8356D01*
X266067Y9413D01*
X266307Y10495D01*
X266452Y11593D01*
X266500Y12700D01*
X266500Y375160D01*
X266452Y376267D01*
X266307Y377365D01*
X266067Y378447D01*
X265734Y379504D01*
X265310Y380527D01*
X264799Y381510D01*
X264203Y382444D01*
X263529Y383323D01*
X262780Y384140D01*
X261964Y384889D01*
X261085Y385563D01*
X260150Y386159D01*
X259167Y386670D01*
X258144Y387094D01*
X257087Y387427D01*
X256005Y387667D01*
X254907Y387812D01*
X253800Y387860D01*
X12700Y387860D01*
X11593Y387812D01*
X10495Y387667D01*
X9413Y387427D01*
X8356Y387094D01*
X7333Y386670D01*
X6350Y386159D01*
X5416Y385563D01*
X4537Y384889D01*
X3720Y384140D01*
X2971Y383323D01*
X2297Y382444D01*
X1701Y381510D01*
X1190Y380527D01*
X766Y379504D01*
X433Y378447D01*
X193Y377365D01*
X48Y376267D01*
X0Y375160D01*
X0Y12700D01*
M02*
