G04 EAGLE Gerber RS-274X export*
G75*
%MOMM*%
%FSLAX34Y34*%
%LPD*%
%INSoldermask Top*%
%IPPOS*%
%AMOC8*
5,1,8,0,0,1.08239X$1,22.5*%
G01*
G04 Define Apertures*
%ADD10C,1.411200*%
%ADD11C,1.727200*%
D10*
X207800Y73660D03*
X187800Y73660D03*
X167800Y73660D03*
X147800Y73660D03*
X56840Y76200D03*
X76840Y76200D03*
X76040Y106680D03*
X56040Y106680D03*
D11*
X177800Y114300D02*
X177800Y99060D01*
X152400Y99060D02*
X152400Y114300D01*
X25851Y197077D02*
X10611Y197077D01*
X10611Y222477D02*
X25851Y222477D01*
X25851Y247877D02*
X10611Y247877D01*
X10611Y273277D02*
X25851Y273277D01*
X25851Y298677D02*
X10611Y298677D01*
X10611Y324077D02*
X25851Y324077D01*
X25851Y349477D02*
X10611Y349477D01*
X10611Y374877D02*
X25851Y374877D01*
X239211Y197077D02*
X254451Y197077D01*
X254451Y222477D02*
X239211Y222477D01*
X239211Y247877D02*
X254451Y247877D01*
X254451Y273277D02*
X239211Y273277D01*
X239211Y298677D02*
X254451Y298677D01*
X254451Y324077D02*
X239211Y324077D01*
X239211Y349477D02*
X254451Y349477D01*
X254451Y374877D02*
X239211Y374877D01*
M02*
