M48
;GenerationSoftware,Autodesk,EAGLE,9.7.0*%
;CreationDate,2022-03-15T16:45:15Z*%
FMAT,2
ICI,OFF
METRIC,TZ,000.000
T3C0.700
T2C1.016
%
G90
M71
T2
X17780Y10668
X15240Y10668
X1823Y19708
X1823Y22248
X1823Y24788
X1823Y27328
X1823Y29868
X1823Y32408
X1823Y34948
X1823Y37488
X24683Y19708
X24683Y22248
X24683Y24788
X24683Y27328
X24683Y29868
X24683Y32408
X24683Y34948
X24683Y37488
T3
X20780Y7366
X18780Y7366
X16780Y7366
X14780Y7366
X5684Y7620
X7684Y7620
X7604Y10668
X5604Y10668
M30